:FULLY-SPECIFIED
:FORCE-ALL-JOINTS-BE-3DOF
:DEGREES
162
root 8.29293 16.6217 -14.2329 7.50298 9.41553 -0.693026
lfemur -5.74076 7.9355 -14.7516
ltibia 55.1326 -0 0
lfoot 1.50638 12.6025 0.0823175
ltoes -13.0355 0 0
rfemur -28.6807 1.68976 23.1989
rtibia 29.9732 -0 0
rfoot -13.4809 0.108034 0.0651767
rtoes -15.2252 0 0
lowerback -4.71132 -1.81819 -0.564218
upperback -1.65749 -2.43677 3.42905
thorax 1.11034 -1.21481 3.6968
lowerneck -18.7477 -7.15002 -14.5181
upperneck 14.8851 -8.70287 14.5126
head 9.07735 -3.52907 6.21334
lclavicle -2.54444e-14 2.3059e-14 0
lhumerus -44.6595 -13.4284 97.2859
lradius 27.265 -0 0
lwrist 4.49879 0 0
lhand -0.929744 -18.7255 0.00628469
lfingers 7.12502 -0 0
lthumb 24.6993 9.69809 0.00537415
rclavicle -2.54444e-14 2.3059e-14 0
rhumerus -45.5545 9.43941 -81.6969
rradius 34.3059 -0 0
rwrist -18.7193 0 0
rhand -28.2248 -26.4206 -0.00514721
rfingers 7.12502 -0 0
rthumb -1.60306 -56.3958 -0.00485962
163
root 8.2685 16.6376 -14.0803 7.5303 9.37582 -0.834917
lfemur -6.5217 8.04051 -14.5946
ltibia 55.7958 -0 0
lfoot 1.62988 12.8145 0.0510728
ltoes -13.1766 0 0
rfemur -28.1613 1.52429 23.559
rtibia 29.9128 -0 0
rfoot -13.3354 0.373921 0.0415847
rtoes -15.0469 0 0
lowerback -4.65779 -1.74899 -0.434548
upperback -1.65606 -2.35084 3.45123
thorax 1.07088 -1.17088 3.65764
lowerneck -18.7157 -7.17318 -14.5365
upperneck 14.7753 -8.73587 14.5785
head 9.04276 -3.54132 6.23159
lclavicle -2.54444e-14 2.3059e-14 0
lhumerus -44.9465 -13.1675 97.2436
lradius 27.0246 -0 0
lwrist 4.42954 0 0
lhand -0.866082 -18.6806 0.00272008
lfingers 7.12502 -0 0
lthumb 24.7605 9.73634 0.00243522
rclavicle -2.54444e-14 2.3059e-14 0
rhumerus -45.4297 9.50676 -81.6789
rradius 34.4976 -0 0
rwrist -18.8126 0 0
rhand -28.2488 -26.4982 -0.00346099
rfingers 7.12502 -0 0
rthumb -1.62622 -56.4728 -0.00326428
164
root 8.24407 16.6536 -13.9278 7.55457 9.32992 -0.968487
lfemur -7.28366 8.12229 -14.4603
ltibia 56.3182 -0 0
lfoot 1.70741 12.9989 0.02346
ltoes -13.3131 0 0
rfemur -27.6412 1.38737 23.8889
rtibia 29.8089 -0 0
rfoot -13.2168 0.621008 0.0197317
rtoes -14.8791 0 0
lowerback -4.61396 -1.68031 -0.313595
upperback -1.65267 -2.26514 3.47086
thorax 1.03968 -1.12724 3.62026
lowerneck -18.6814 -7.19346 -14.5537
upperneck 14.6773 -8.76552 14.6385
head 9.01093 -3.55255 6.24836
lclavicle -2.54444e-14 2.3059e-14 0
lhumerus -45.2146 -12.9315 97.2065
lradius 26.8149 -0 0
lwrist 4.38011 0 0
lhand -0.831942 -18.6514 0.000588245
lfingers 7.12502 -0 0
lthumb 24.7933 9.76181 0.000614398
rclavicle -2.54444e-14 2.3059e-14 0
rhumerus -45.2993 9.568 -81.6592
rradius 34.7032 -0 0
rwrist -18.9116 0 0
rhand -28.2799 -26.573 -0.00174206
rfingers 7.12502 -0 0
rthumb -1.65628 -56.5468 -0.00164135
165
root 8.21964 16.6696 -13.7752 7.57564 9.27781 -1.09318
lfemur -8.02459 8.17899 -14.3492
ltibia 56.6923 0 0
lfoot 1.73682 13.1541 0
ltoes -13.4446 0 0
rfemur -27.1207 1.28124 24.1873
rtibia 29.659 0 0
rfoot -13.1264 0.848233 0
rtoes -14.7226 0 0
lowerback -4.58039 -1.61222 -0.201933
upperback -1.64723 -2.17981 3.48779
thorax 1.0172 -1.08396 3.58479
lowerneck -18.6444 -7.21073 -14.5694
upperneck 14.5916 -8.79172 14.6921
head 8.98202 -3.56274 6.26355
lclavicle -2.54444e-14 2.3059e-14 0
lhumerus -45.4629 -12.722 97.1754
lradius 26.6379 0 0
lwrist 4.35162 0 0
lhand -0.828752 -18.6386 0
lfingers 7.12502 0 0
lthumb 24.7963 9.77387 0
rclavicle -2.54444e-14 2.3059e-14 0
rhumerus -45.1634 9.62268 -81.6378
rradius 34.923 0 0
rwrist -19.0166 0 0
rhand -28.3185 -26.6449 0
rfingers 7.12502 0 0
rthumb -1.69352 -56.6179 0
166
root 8.22049 16.6671 -13.6491 7.59287 9.21637 -1.21327
lfemur -8.76972 8.20858 -14.2583
ltibia 56.9229 -0 0
lfoot 1.71478 13.2868 -0.0199444
ltoes -13.5773 0 0
rfemur -26.5852 1.20357 24.466
rtibia 29.4619 -0 0
rfoot -13.0694 1.0601 -0.0182674
rtoes -14.5695 0 0
lowerback -4.55574 -1.54249 -0.0958246
upperback -1.63895 -2.09213 3.5029
thorax 1.00322 -1.03964 3.55038
lowerneck -18.6041 -7.22515 -14.5837
upperneck 14.5157 -8.81478 14.7407
head 8.9551 -3.57195 6.27753
lclavicle 2.61402e-14 3.18055e-15 0
lhumerus -45.6966 -12.5335 97.1494
lradius 26.4891 -0 0
lwrist 4.34668 0 0
lhand -0.858858 -18.6427 0.00106334
lfingers 7.12502 -0 0
lthumb 24.7673 9.77228 0.000667468
rclavicle 2.61402e-14 3.18055e-15 0
rhumerus -45.0143 9.67446 -81.614
rradius 35.168 -0 0
rwrist -19.1326 0 0
rhand -28.3672 -26.7173 0.00182381
rfingers 7.12502 -0 0
rthumb -1.7405 -56.6893 0.00171439
